<svg xmlns="http://www.w3.org/2000/svg" viewBox="0 0 1600 900" role="img" aria-label="A* Search Pattern in Java — A Detailed Guide banner">
  <defs>
    <linearGradient id="bg" x1="0" y1="0" x2="1" y2="1">
      <stop offset="0%" stop-color="#0b1220"/>
      <stop offset="60%" stop-color="#172554"/>
      <stop offset="100%" stop-color="#0e1a33"/>
    </linearGradient>
    <pattern id="grid" width="56" height="56" patternUnits="userSpaceOnUse">
      <path d="M56 0H0V56" fill="none" stroke="#dbeafe" stroke-opacity="0.08" stroke-width="1"/>
    </pattern>
  </defs>
  <rect width="1600" height="900" fill="url(#bg)"/>
  <rect width="1600" height="900" fill="url(#grid)"/>
  <circle cx="1280" cy="160" r="260" fill="#38bdf8" fill-opacity="0.14"/>
  <circle cx="260" cy="760" r="220" fill="#22d3ee" fill-opacity="0.12"/>
  <g stroke="#7dd3fc" stroke-width="4" opacity="0.55"><path d="M520 300V620M620 300V620M720 300V620M820 300V620M920 300V620M1020 300V620"/><path d="M520 300H1020M520 380H1020M520 460H1020M520 540H1020M520 620H1020"/></g><path d="M560 580L700 500L780 420L940 340" stroke="#fde047" stroke-width="9" fill="none" stroke-linecap="round"/><circle cx="560" cy="580" r="18" fill="#22d3ee"/><circle cx="940" cy="340" r="18" fill="#22d3ee"/>
</svg>
