<svg xmlns="http://www.w3.org/2000/svg" viewBox="0 0 512 512" role="img" aria-labelledby="title desc">
  <title id="title">Author avatar portrait</title>
  <desc id="desc">A realistic vector portrait avatar with skin tones, hair, and clothing details.</desc>
  <defs>
    <linearGradient id="bg" x1="0" y1="0" x2="1" y2="1">
      <stop offset="0%" stop-color="#0f172a"/>
      <stop offset="55%" stop-color="#1e3a8a"/>
      <stop offset="100%" stop-color="#0ea5e9"/>
    </linearGradient>
    <radialGradient id="vignette" cx="50%" cy="35%" r="65%">
      <stop offset="70%" stop-color="#000000" stop-opacity="0"/>
      <stop offset="100%" stop-color="#000000" stop-opacity="0.22"/>
    </radialGradient>
    <linearGradient id="skin" x1="0" y1="0" x2="0" y2="1">
      <stop offset="0%" stop-color="#f2c4a2"/>
      <stop offset="100%" stop-color="#d79b7a"/>
    </linearGradient>
    <linearGradient id="shirt" x1="0" y1="0" x2="1" y2="1">
      <stop offset="0%" stop-color="#1f2937"/>
      <stop offset="100%" stop-color="#111827"/>
    </linearGradient>
  </defs>

  <rect width="512" height="512" fill="#e2e8f0"/>
  <circle cx="256" cy="256" r="220" fill="url(#bg)"/>
  <circle cx="256" cy="256" r="220" fill="url(#vignette)"/>

  <ellipse cx="256" cy="426" rx="130" ry="72" fill="url(#shirt)"/>
  <path d="M181 403c19-36 46-59 75-59 28 0 56 23 75 59-22 11-48 18-75 18-28 0-53-7-75-18z" fill="#f8fafc"/>
  <rect x="228" y="311" width="56" height="56" rx="20" fill="url(#skin)"/>

  <ellipse cx="256" cy="226" rx="93" ry="112" fill="url(#skin)"/>
  <path d="M168 227c0-74 39-124 88-124s88 50 88 124c-6-17-17-31-30-42-19 12-42 19-66 19-23 0-45-7-64-18-8 10-13 24-16 41z" fill="#111827"/>
  <path d="M185 214c15-66 50-96 71-96 52 0 92 42 94 106-12-16-35-30-57-30-21 0-41 7-58 20-15-3-30-3-50 0z" fill="#1f2937"/>

  <ellipse cx="222" cy="235" rx="10" ry="6" fill="#1f2937"/>
  <ellipse cx="290" cy="235" rx="10" ry="6" fill="#1f2937"/>
  <path d="M219 273c11 11 21 16 37 16 15 0 26-5 36-16" fill="none" stroke="#8b5e44" stroke-width="5" stroke-linecap="round"/>
  <ellipse cx="207" cy="257" rx="10" ry="7" fill="#d88f7a" opacity="0.55"/>
  <ellipse cx="305" cy="257" rx="10" ry="7" fill="#d88f7a" opacity="0.55"/>
  <path d="M249 245c-2 12-5 22-11 30 7 4 14 4 22 0-6-8-9-18-11-30z" fill="#c78663"/>

  <circle cx="218" cy="198" r="7" fill="#ffffff" opacity="0.35"/>
  <circle cx="280" cy="181" r="5" fill="#ffffff" opacity="0.2"/>
</svg>
