<svg xmlns="http://www.w3.org/2000/svg" viewBox="0 0 1600 900" role="img">
  <defs><linearGradient id="bg" x1="0" y1="0" x2="1" y2="1"><stop offset="0%" stop-color="#0b1220"/><stop offset="60%" stop-color="#172554"/><stop offset="100%" stop-color="#0e1a33"/></linearGradient><pattern id="grid" width="56" height="56" patternUnits="userSpaceOnUse"><path d="M56 0H0V56" fill="none" stroke="#dbeafe" stroke-opacity="0.08" stroke-width="1"/></pattern></defs>
  <rect width="1600" height="900" fill="url(#bg)"/><rect width="1600" height="900" fill="url(#grid)"/>
  <circle cx="1280" cy="160" r="260" fill="#38bdf8" fill-opacity="0.14"/><circle cx="260" cy="760" r="220" fill="#22d3ee" fill-opacity="0.12"/>
  <g stroke="#7dd3fc" stroke-width="7" stroke-linecap="round" fill="none"><path d="M800 230V320"/><path d="M800 320L600 430"/><path d="M800 320L1000 430"/><path d="M600 430L480 560"/><path d="M600 430L720 560"/><path d="M1000 430L880 560"/><path d="M1000 430L1120 560"/></g>
  <g fill="#22d3ee" fill-opacity="0.75"><circle cx="800" cy="205" r="34"/><circle cx="600" cy="430" r="30"/><circle cx="1000" cy="430" r="30"/><circle cx="480" cy="560" r="26"/><circle cx="720" cy="560" r="26"/><circle cx="880" cy="560" r="26"/><circle cx="1120" cy="560" r="26"/></g>
</svg>
