<svg xmlns="http://www.w3.org/2000/svg" viewBox="0 0 1600 900" role="img" aria-label="Bellman-Ford Algorithm in Java — A Detailed Guide banner">
  <defs>
    <linearGradient id="bg" x1="0" y1="0" x2="1" y2="1">
      <stop offset="0%" stop-color="#0b1220"/>
      <stop offset="60%" stop-color="#172554"/>
      <stop offset="100%" stop-color="#0e1a33"/>
    </linearGradient>
    <pattern id="grid" width="56" height="56" patternUnits="userSpaceOnUse">
      <path d="M56 0H0V56" fill="none" stroke="#dbeafe" stroke-opacity="0.08" stroke-width="1"/>
    </pattern>
  </defs>
  <rect width="1600" height="900" fill="url(#bg)"/>
  <rect width="1600" height="900" fill="url(#grid)"/>
  <circle cx="1280" cy="160" r="260" fill="#38bdf8" fill-opacity="0.14"/>
  <circle cx="260" cy="760" r="220" fill="#22d3ee" fill-opacity="0.12"/>
  <g stroke="#a5f3fc" stroke-width="8" fill="none" stroke-linecap="round"><path d="M520 500H1080"/><path d="M1080 500L960 380"/><path d="M960 380L760 380"/><path d="M760 380L640 500"/><path d="M640 500L760 620"/><path d="M760 620L960 620"/><path d="M960 620L1080 500"/></g><path d="M760 380L960 620" stroke="#fde047" stroke-width="8"/><g fill="#22d3ee"><circle cx="520" cy="500" r="18"/><circle cx="760" cy="380" r="18"/><circle cx="960" cy="380" r="18"/><circle cx="1080" cy="500" r="18"/><circle cx="960" cy="620" r="18"/><circle cx="760" cy="620" r="18"/><circle cx="640" cy="500" r="18"/></g>
</svg>
