<svg xmlns="http://www.w3.org/2000/svg" viewBox="0 0 1600 900" role="img">
  <defs>
    <linearGradient id="bg" x1="0" y1="0" x2="1" y2="1">
      <stop offset="0%" stop-color="#0b1220"/>
      <stop offset="60%" stop-color="#172554"/>
      <stop offset="100%" stop-color="#0e1a33"/>
    </linearGradient>
    <pattern id="grid" width="56" height="56" patternUnits="userSpaceOnUse">
      <path d="M56 0H0V56" fill="none" stroke="#dbeafe" stroke-opacity="0.08" stroke-width="1"/>
    </pattern>
  </defs>
  <rect width="1600" height="900" fill="url(#bg)"/><rect width="1600" height="900" fill="url(#grid)"/>
  <circle cx="1280" cy="160" r="260" fill="#38bdf8" fill-opacity="0.14"/>
  <circle cx="260" cy="760" r="220" fill="#22d3ee" fill-opacity="0.12"/>
  <g fill="#67e8f9" fill-opacity="0.22">
    <rect x="360" y="390" width="90" height="140" rx="10"/><rect x="470" y="390" width="90" height="140" rx="10"/>
    <rect x="580" y="390" width="90" height="140" rx="10"/><rect x="690" y="390" width="90" height="140" rx="10"/>
    <rect x="800" y="370" width="90" height="180" rx="10"/><rect x="910" y="390" width="90" height="140" rx="10"/>
    <rect x="1020" y="390" width="90" height="140" rx="10"/><rect x="1130" y="390" width="90" height="140" rx="10"/>
  </g>
  <circle cx="845" cy="280" r="72" fill="none" stroke="#a5f3fc" stroke-width="10"/>
  <path d="M895 330L980 415" stroke="#a5f3fc" stroke-width="10" stroke-linecap="round"/>
</svg>
