<svg xmlns="http://www.w3.org/2000/svg" viewBox="0 0 1600 900" role="img" aria-label="Floyd-Warshall Algorithm in Java — A Detailed Guide banner">
  <defs>
    <linearGradient id="bg" x1="0" y1="0" x2="1" y2="1">
      <stop offset="0%" stop-color="#0b1220"/>
      <stop offset="60%" stop-color="#172554"/>
      <stop offset="100%" stop-color="#0e1a33"/>
    </linearGradient>
    <pattern id="grid" width="56" height="56" patternUnits="userSpaceOnUse">
      <path d="M56 0H0V56" fill="none" stroke="#dbeafe" stroke-opacity="0.08" stroke-width="1"/>
    </pattern>
  </defs>
  <rect width="1600" height="900" fill="url(#bg)"/>
  <rect width="1600" height="900" fill="url(#grid)"/>
  <circle cx="1280" cy="160" r="260" fill="#38bdf8" fill-opacity="0.14"/>
  <circle cx="260" cy="760" r="220" fill="#22d3ee" fill-opacity="0.12"/>
  <g stroke="#7dd3fc" stroke-width="7" fill="none"><path d="M520 340L800 280L1080 340L980 560L620 560Z"/><path d="M520 340L980 560"/><path d="M620 560L1080 340"/><path d="M800 280L620 560"/><path d="M800 280L980 560"/></g><g fill="#22d3ee"><circle cx="520" cy="340" r="18"/><circle cx="800" cy="280" r="18"/><circle cx="1080" cy="340" r="18"/><circle cx="980" cy="560" r="18"/><circle cx="620" cy="560" r="18"/></g>
</svg>
