<svg xmlns="http://www.w3.org/2000/svg" viewBox="0 0 1600 900" role="img">
  <defs><linearGradient id="bg" x1="0" y1="0" x2="1" y2="1"><stop offset="0%" stop-color="#0b1220"/><stop offset="60%" stop-color="#172554"/><stop offset="100%" stop-color="#0e1a33"/></linearGradient><pattern id="grid" width="56" height="56" patternUnits="userSpaceOnUse"><path d="M56 0H0V56" fill="none" stroke="#dbeafe" stroke-opacity="0.08" stroke-width="1"/></pattern></defs>
  <rect width="1600" height="900" fill="url(#bg)"/><rect width="1600" height="900" fill="url(#grid)"/>
  <circle cx="1280" cy="160" r="260" fill="#38bdf8" fill-opacity="0.14"/><circle cx="260" cy="760" r="220" fill="#22d3ee" fill-opacity="0.12"/>
  <g stroke="#7dd3fc" stroke-width="6" opacity="0.72"><path d="M420 300L620 220"/><path d="M620 220L860 320"/><path d="M860 320L1080 240"/><path d="M620 220L620 500"/><path d="M860 320L860 560"/><path d="M420 300L620 500"/><path d="M620 500L860 560"/><path d="M860 560L1160 500"/><path d="M1080 240L1160 500"/></g>
  <g fill="#22d3ee" fill-opacity="0.78"><circle cx="420" cy="300" r="28"/><circle cx="620" cy="220" r="28"/><circle cx="860" cy="320" r="28"/><circle cx="1080" cy="240" r="28"/><circle cx="620" cy="500" r="28"/><circle cx="860" cy="560" r="28"/><circle cx="1160" cy="500" r="28"/></g>
</svg>
