<svg xmlns="http://www.w3.org/2000/svg" viewBox="0 0 1600 900" role="img">
  <defs>
    <linearGradient id="bg" x1="0" y1="0" x2="1" y2="1">
      <stop offset="0%" stop-color="#0b1220"/>
      <stop offset="60%" stop-color="#172554"/>
      <stop offset="100%" stop-color="#0e1a33"/>
    </linearGradient>
    <pattern id="grid" width="56" height="56" patternUnits="userSpaceOnUse">
      <path d="M56 0H0V56" fill="none" stroke="#dbeafe" stroke-opacity="0.08" stroke-width="1"/>
    </pattern>
  </defs>
  <rect width="1600" height="900" fill="url(#bg)"/><rect width="1600" height="900" fill="url(#grid)"/>
  <circle cx="1280" cy="160" r="260" fill="#38bdf8" fill-opacity="0.14"/>
  <circle cx="260" cy="760" r="220" fill="#22d3ee" fill-opacity="0.12"/>
  <g stroke="#7dd3fc" stroke-opacity="0.5" stroke-width="4">
    <path d="M420 260H1180"/><path d="M420 380H1180"/><path d="M420 500H1180"/><path d="M420 620H1180"/>
    <path d="M420 260V620"/><path d="M610 260V620"/><path d="M800 260V620"/><path d="M990 260V620"/><path d="M1180 260V620"/>
  </g>
  <g fill="#22d3ee" fill-opacity="0.65">
    <rect x="440" y="280" width="150" height="80" rx="12"/>
    <rect x="820" y="400" width="150" height="80" rx="12"/>
    <rect x="1010" y="520" width="150" height="80" rx="12"/>
  </g>
</svg>
