<svg xmlns="http://www.w3.org/2000/svg" viewBox="0 0 1600 900" role="img">
  <defs><linearGradient id="bg" x1="0" y1="0" x2="1" y2="1"><stop offset="0%" stop-color="#0b1220"/><stop offset="60%" stop-color="#172554"/><stop offset="100%" stop-color="#0e1a33"/></linearGradient><pattern id="grid" width="56" height="56" patternUnits="userSpaceOnUse"><path d="M56 0H0V56" fill="none" stroke="#dbeafe" stroke-opacity="0.08" stroke-width="1"/></pattern></defs>
  <rect width="1600" height="900" fill="url(#bg)"/><rect width="1600" height="900" fill="url(#grid)"/>
  <circle cx="1280" cy="160" r="260" fill="#38bdf8" fill-opacity="0.14"/><circle cx="260" cy="760" r="220" fill="#22d3ee" fill-opacity="0.12"/>
  <g stroke="#7dd3fc" stroke-width="7" opacity="0.65"><path d="M800 300L650 410"/><path d="M800 300L950 410"/><path d="M650 410L560 520"/><path d="M650 410L740 520"/><path d="M950 410L860 520"/><path d="M950 410L1040 520"/></g>
  <g fill="#22d3ee" fill-opacity="0.72"><circle cx="800" cy="270" r="50"/><circle cx="650" cy="410" r="44"/><circle cx="950" cy="410" r="44"/><circle cx="560" cy="520" r="40"/><circle cx="740" cy="520" r="40"/><circle cx="860" cy="520" r="40"/><circle cx="1040" cy="520" r="40"/></g>
</svg>
