<svg xmlns="http://www.w3.org/2000/svg" viewBox="0 0 1600 900" role="img">
  <defs><linearGradient id="bg" x1="0" y1="0" x2="1" y2="1"><stop offset="0%" stop-color="#0b1220"/><stop offset="60%" stop-color="#172554"/><stop offset="100%" stop-color="#0e1a33"/></linearGradient><pattern id="grid" width="56" height="56" patternUnits="userSpaceOnUse"><path d="M56 0H0V56" fill="none" stroke="#dbeafe" stroke-opacity="0.08" stroke-width="1"/></pattern></defs>
  <rect width="1600" height="900" fill="url(#bg)"/><rect width="1600" height="900" fill="url(#grid)"/>
  <circle cx="1280" cy="160" r="260" fill="#38bdf8" fill-opacity="0.14"/><circle cx="260" cy="760" r="220" fill="#22d3ee" fill-opacity="0.12"/>
  <g stroke="#7dd3fc" stroke-width="6" opacity="0.4"><path d="M320 300H1280"/><path d="M320 440H1280"/><path d="M320 580H1280"/></g>
  <g fill="#22d3ee" fill-opacity="0.58">
    <rect x="420" y="260" width="360" height="80" rx="14"/><rect x="650" y="260" width="320" height="80" rx="14"/><rect x="900" y="260" width="220" height="80" rx="14"/>
    <rect x="380" y="400" width="220" height="80" rx="14"/><rect x="710" y="400" width="220" height="80" rx="14"/><rect x="980" y="400" width="260" height="80" rx="14"/>
  </g>
  <rect x="500" y="540" width="600" height="80" rx="14" fill="none" stroke="#a5f3fc" stroke-width="9"/>
</svg>
