<svg xmlns="http://www.w3.org/2000/svg" viewBox="0 0 1600 900" role="img" aria-label="Advanced Java generic banner">
  <defs>
    <linearGradient id="bg" x1="0" y1="0" x2="1" y2="1">
      <stop offset="0%" stop-color="#171311"/>
      <stop offset="58%" stop-color="#5b4632"/>
      <stop offset="100%" stop-color="#27484a"/>
    </linearGradient>
    <pattern id="grid" width="56" height="56" patternUnits="userSpaceOnUse">
      <path d="M56 0H0V56" fill="none" stroke="#f5efe6" stroke-opacity="0.08" stroke-width="1"/>
    </pattern>
  </defs>
  <rect width="1600" height="900" fill="url(#bg)"/>
  <rect width="1600" height="900" fill="url(#grid)"/>
  <circle cx="1280" cy="160" r="260" fill="#f59e0b" fill-opacity="0.14"/>
  <circle cx="260" cy="760" r="220" fill="#6ee7d8" fill-opacity="0.11"/>

  <g stroke="#e7d2b5" stroke-width="7" fill="none" stroke-linecap="round" opacity="0.75">
    <path d="M430 600V320"/>
    <path d="M610 600V260"/>
    <path d="M790 600V380"/>
    <path d="M970 600V300"/>
    <path d="M1150 600V420"/>
  </g>

  <g fill="#efe0cb" fill-opacity="0.78">
    <circle cx="430" cy="320" r="20"/>
    <circle cx="610" cy="260" r="20"/>
    <circle cx="790" cy="380" r="20"/>
    <circle cx="970" cy="300" r="20"/>
    <circle cx="1150" cy="420" r="20"/>
    <circle cx="430" cy="600" r="12"/>
    <circle cx="610" cy="600" r="12"/>
    <circle cx="790" cy="600" r="12"/>
    <circle cx="970" cy="600" r="12"/>
    <circle cx="1150" cy="600" r="12"/>
  </g>

  <path d="M430 460L610 430L790 500L970 450L1150 520" stroke="#fde047" stroke-width="9" fill="none" stroke-linecap="round"/>
</svg>
