<svg xmlns="http://www.w3.org/2000/svg" viewBox="0 0 1600 900" role="img" aria-label="Java design patterns series banner">
  <defs>
    <linearGradient id="bg" x1="0" y1="0" x2="1" y2="1">
      <stop offset="0%" stop-color="#171311"/>
      <stop offset="45%" stop-color="#5c4634"/>
      <stop offset="100%" stop-color="#2c5a57"/>
    </linearGradient>
    <linearGradient id="panel" x1="0" y1="0" x2="1" y2="1">
      <stop offset="0%" stop-color="#f7efe4" stop-opacity="0.92"/>
      <stop offset="100%" stop-color="#dcc6a8" stop-opacity="0.78"/>
    </linearGradient>
    <pattern id="grid" width="48" height="48" patternUnits="userSpaceOnUse">
      <path d="M48 0H0V48" fill="none" stroke="#f8fafc" stroke-opacity="0.07" stroke-width="1"/>
    </pattern>
  </defs>

  <rect width="1600" height="900" fill="url(#bg)"/>
  <rect width="1600" height="900" fill="url(#grid)"/>

  <circle cx="220" cy="180" r="180" fill="#6ee7d8" fill-opacity="0.12"/>
  <circle cx="1380" cy="720" r="220" fill="#f59e0b" fill-opacity="0.12"/>

  <g fill="none" stroke="#e7d2b5" stroke-width="5" stroke-linecap="round" opacity="0.88">
    <path d="M180 650H420"/>
    <path d="M1180 270H1420"/>
    <path d="M510 210H730"/>
    <path d="M880 690H1090"/>
  </g>

  <g fill="url(#panel)">
    <rect x="420" y="180" width="760" height="420" rx="34"/>
  </g>

  <g stroke="#0f172a" stroke-width="7" fill="none" opacity="0.95">
    <rect x="525" y="270" width="220" height="110" rx="18"/>
    <rect x="855" y="270" width="220" height="110" rx="18"/>
    <rect x="690" y="430" width="220" height="110" rx="18"/>
    <line x1="745" y1="325" x2="855" y2="325"/>
    <line x1="635" y1="380" x2="745" y2="430"/>
    <line x1="965" y1="380" x2="855" y2="430"/>
  </g>

  <g fill="#0f172a" opacity="0.82">
    <rect x="560" y="305" width="150" height="16" rx="8"/>
    <rect x="560" y="336" width="120" height="12" rx="6"/>
    <rect x="890" y="305" width="150" height="16" rx="8"/>
    <rect x="890" y="336" width="122" height="12" rx="6"/>
    <rect x="725" y="466" width="150" height="16" rx="8"/>
    <rect x="725" y="497" width="120" height="12" rx="6"/>
  </g>

  <g fill="#fde68a">
    <circle cx="800" cy="325" r="15"/>
    <circle cx="745" cy="430" r="15"/>
    <circle cx="855" cy="430" r="15"/>
  </g>
</svg>
