<svg xmlns="http://www.w3.org/2000/svg" viewBox="0 0 1600 900" role="img" aria-label="CompletableFuture error handling banner">
  <defs><linearGradient id="bg" x1="0" y1="0" x2="1" y2="1"><stop offset="0%" stop-color="#0b1220"/><stop offset="60%" stop-color="#172554"/><stop offset="100%" stop-color="#0e1a33"/></linearGradient><pattern id="grid" width="56" height="56" patternUnits="userSpaceOnUse"><path d="M56 0H0V56" fill="none" stroke="#dbeafe" stroke-opacity="0.08" stroke-width="1"/></pattern></defs>
  <rect width="1600" height="900" fill="url(#bg)"/><rect width="1600" height="900" fill="url(#grid)"/>
  <circle cx="1280" cy="160" r="260" fill="#38bdf8" fill-opacity="0.14"/><circle cx="260" cy="760" r="220" fill="#22d3ee" fill-opacity="0.12"/>
  <g stroke="#a5f3fc" stroke-width="8" fill="none" stroke-linecap="round"><path d="M340 450H560"/><path d="M680 450H900"/><path d="M1020 450H1240"/><path d="M560 450L680 340"/><path d="M560 450L680 560"/><path d="M680 560L900 560"/><path d="M900 560L1020 450"/></g>
  <g fill="#22d3ee" fill-opacity="0.78"><circle cx="340" cy="450" r="22"/><circle cx="560" cy="450" r="22"/><circle cx="680" cy="340" r="20"/><circle cx="680" cy="560" r="20"/><circle cx="900" cy="450" r="22"/><circle cx="1020" cy="450" r="22"/><circle cx="1240" cy="450" r="22"/></g>
  <path d="M780 470L830 560H730Z" fill="#fde047"/>
</svg>
