<svg xmlns="http://www.w3.org/2000/svg" viewBox="0 0 1600 900" role="img">
  <defs>
    <linearGradient id="bg" x1="0" y1="0" x2="1" y2="1">
      <stop offset="0%" stop-color="#0b1220"/>
      <stop offset="60%" stop-color="#172554"/>
      <stop offset="100%" stop-color="#0e1a33"/>
    </linearGradient>
    <pattern id="grid" width="56" height="56" patternUnits="userSpaceOnUse">
      <path d="M56 0H0V56" fill="none" stroke="#dbeafe" stroke-opacity="0.08" stroke-width="1"/>
    </pattern>
  </defs>
  <rect width="1600" height="900" fill="url(#bg)"/><rect width="1600" height="900" fill="url(#grid)"/>
  <circle cx="1280" cy="160" r="260" fill="#38bdf8" fill-opacity="0.14"/>
  <circle cx="260" cy="760" r="220" fill="#22d3ee" fill-opacity="0.12"/>
  <g fill="#67e8f9" fill-opacity="0.26">
    <rect x="380" y="570" width="70" height="110" rx="8"/><rect x="470" y="520" width="70" height="160" rx="8"/>
    <rect x="560" y="470" width="70" height="210" rx="8"/><rect x="650" y="420" width="70" height="260" rx="8"/>
    <rect x="740" y="360" width="70" height="320" rx="8"/><rect x="830" y="300" width="70" height="380" rx="8"/>
    <rect x="920" y="350" width="70" height="330" rx="8"/><rect x="1010" y="420" width="70" height="260" rx="8"/>
    <rect x="1100" y="500" width="70" height="180" rx="8"/>
  </g>
  <path d="M415 625L505 575L595 525L685 475L775 415L865 355L955 405L1045 475L1135 555" fill="none" stroke="#a5f3fc" stroke-width="9" stroke-linecap="round"/>
</svg>
