<svg xmlns="http://www.w3.org/2000/svg" viewBox="0 0 1600 900" role="img" aria-label="Segment Tree Pattern in Java — A Detailed Guide banner">
  <defs>
    <linearGradient id="bg" x1="0" y1="0" x2="1" y2="1">
      <stop offset="0%" stop-color="#0b1220"/>
      <stop offset="60%" stop-color="#172554"/>
      <stop offset="100%" stop-color="#0e1a33"/>
    </linearGradient>
    <pattern id="grid" width="56" height="56" patternUnits="userSpaceOnUse">
      <path d="M56 0H0V56" fill="none" stroke="#dbeafe" stroke-opacity="0.08" stroke-width="1"/>
    </pattern>
  </defs>
  <rect width="1600" height="900" fill="url(#bg)"/>
  <rect width="1600" height="900" fill="url(#grid)"/>
  <circle cx="1280" cy="160" r="260" fill="#38bdf8" fill-opacity="0.14"/>
  <circle cx="260" cy="760" r="220" fill="#22d3ee" fill-opacity="0.12"/>
  <g stroke="#a5f3fc" stroke-width="8" fill="none"><path d="M800 240V330"/><path d="M800 330L620 450"/><path d="M800 330L980 450"/><path d="M620 450L520 580"/><path d="M620 450L700 580"/><path d="M980 450L900 580"/><path d="M980 450L1080 580"/></g><g fill="#22d3ee"><rect x="760" y="200" width="80" height="60" rx="10"/><rect x="590" y="420" width="60" height="48" rx="8"/><rect x="950" y="420" width="60" height="48" rx="8"/><rect x="490" y="550" width="60" height="48" rx="8"/><rect x="670" y="550" width="60" height="48" rx="8"/><rect x="870" y="550" width="60" height="48" rx="8"/><rect x="1050" y="550" width="60" height="48" rx="8"/></g>
</svg>
