<svg xmlns="http://www.w3.org/2000/svg" viewBox="0 0 1600 900" role="img">
  <defs><linearGradient id="bg" x1="0" y1="0" x2="1" y2="1"><stop offset="0%" stop-color="#0b1220"/><stop offset="60%" stop-color="#172554"/><stop offset="100%" stop-color="#0e1a33"/></linearGradient><pattern id="grid" width="56" height="56" patternUnits="userSpaceOnUse"><path d="M56 0H0V56" fill="none" stroke="#dbeafe" stroke-opacity="0.08" stroke-width="1"/></pattern></defs>
  <rect width="1600" height="900" fill="url(#bg)"/><rect width="1600" height="900" fill="url(#grid)"/>
  <circle cx="1280" cy="160" r="260" fill="#38bdf8" fill-opacity="0.14"/><circle cx="260" cy="760" r="220" fill="#22d3ee" fill-opacity="0.12"/>
  <g stroke="#7dd3fc" stroke-width="5" opacity="0.35"><path d="M300 260L470 380L700 340L930 470L1210 390"/><path d="M300 260L430 560L690 620L930 470"/><path d="M690 620L980 710L1210 390"/></g>
  <path d="M300 260L470 380L700 340L930 470L1210 390" stroke="#f59e0b" stroke-width="9" fill="none" stroke-linecap="round"/>
  <g fill="#a5f3fc"><circle cx="300" cy="260" r="22"/><circle cx="470" cy="380" r="22"/><circle cx="700" cy="340" r="22"/><circle cx="930" cy="470" r="22"/><circle cx="1210" cy="390" r="22"/></g>
</svg>
