<svg xmlns="http://www.w3.org/2000/svg" width="1200" height="630" viewBox="0 0 1200 630" role="img" aria-labelledby="title desc">
  <title id="title">ScaleMind</title>
  <desc id="desc">Technical deep dives on system design and scalable architecture</desc>
  <defs>
    <linearGradient id="bg" x1="0" y1="0" x2="1" y2="1">
      <stop offset="0%" stop-color="#171615"/>
      <stop offset="50%" stop-color="#26221f"/>
      <stop offset="100%" stop-color="#100f0e"/>
    </linearGradient>
    <linearGradient id="accent" x1="0" y1="0" x2="1" y2="0">
      <stop offset="0%" stop-color="#c9a97f"/>
      <stop offset="100%" stop-color="#9fb0b0"/>
    </linearGradient>
    <linearGradient id="panel" x1="0" y1="0" x2="1" y2="1">
      <stop offset="0%" stop-color="#c9a97f" stop-opacity="0.16"/>
      <stop offset="100%" stop-color="#9fb0b0" stop-opacity="0.08"/>
    </linearGradient>
    <linearGradient id="headline" x1="0" y1="0" x2="1" y2="0">
      <stop offset="0%" stop-color="#f0ece6"/>
      <stop offset="55%" stop-color="#d9bd98"/>
      <stop offset="100%" stop-color="#9fb0b0"/>
    </linearGradient>
  </defs>
  <rect width="1200" height="630" fill="url(#bg)"/>
  <rect x="72" y="64" width="1056" height="502" rx="28" fill="url(#panel)" stroke="#c9a97f" stroke-opacity="0.18" stroke-width="1.5"/>
  <g opacity="0.24">
    <rect x="72" y="64" width="1056" height="502" rx="24" fill="none" stroke="#c9a97f" stroke-width="2"/>
    <path d="M72 184h1056M72 304h1056M72 424h1056" stroke="#7d7469" stroke-width="1"/>
    <path d="M252 64v502M432 64v502M612 64v502M792 64v502M972 64v502" stroke="#7d7469" stroke-width="1"/>
  </g>
  <rect x="96" y="90" width="196" height="54" rx="10" fill="url(#accent)"/>
  <text x="120" y="124" fill="#ffffff" font-family="ui-monospace, SFMono-Regular, Menlo, Monaco, Consolas, monospace" font-size="24" font-weight="700">&lt;/&gt; Blog</text>
  <text x="96" y="258" fill="url(#headline)" font-family="'Iowan Old Style', 'Palatino Linotype', Palatino, 'Book Antiqua', Georgia, serif" font-size="78" font-weight="700" letter-spacing="-2.3" font-kerning="normal">ScaleMind</text>
  <text x="96" y="324" fill="#d7d1c8" font-family="'Avenir Next', 'Segoe UI', sans-serif" font-size="34" font-weight="500">System Design &amp; Scalable Architecture</text>
  <text x="96" y="410" fill="#c9a97f" font-family="ui-monospace, SFMono-Regular, Menlo, Monaco, Consolas, monospace" font-size="24">System Design • Distributed Systems • Backend • Java</text>
  <rect x="96" y="450" width="440" height="8" rx="4" fill="url(#accent)"/>
</svg>
