<svg xmlns="http://www.w3.org/2000/svg" viewBox="0 0 1600 900" role="img">
  <defs><linearGradient id="bg" x1="0" y1="0" x2="1" y2="1"><stop offset="0%" stop-color="#0b1220"/><stop offset="60%" stop-color="#172554"/><stop offset="100%" stop-color="#0e1a33"/></linearGradient><pattern id="grid" width="56" height="56" patternUnits="userSpaceOnUse"><path d="M56 0H0V56" fill="none" stroke="#dbeafe" stroke-opacity="0.08" stroke-width="1"/></pattern></defs>
  <rect width="1600" height="900" fill="url(#bg)"/><rect width="1600" height="900" fill="url(#grid)"/>
  <circle cx="1280" cy="160" r="260" fill="#38bdf8" fill-opacity="0.14"/><circle cx="260" cy="760" r="220" fill="#22d3ee" fill-opacity="0.12"/>
  <g stroke="#7dd3fc" stroke-width="6" opacity="0.42"><path d="M420 260H1180"/><path d="M340 440H1260"/><path d="M260 620H1340"/></g>
  <g stroke="#a5f3fc" stroke-width="7" fill="none" stroke-linecap="round"><path d="M800 282L620 404"/><path d="M800 282L980 404"/><path d="M620 466L480 594"/><path d="M620 466L700 594"/><path d="M980 466L900 594"/><path d="M980 466L1120 594"/></g>
  <g fill="#22d3ee" fill-opacity="0.76"><circle cx="800" cy="260" r="30"/><circle cx="620" cy="440" r="28"/><circle cx="980" cy="440" r="28"/><circle cx="480" cy="620" r="26"/><circle cx="700" cy="620" r="26"/><circle cx="900" cy="620" r="26"/><circle cx="1120" cy="620" r="26"/></g>
</svg>
