<svg xmlns="http://www.w3.org/2000/svg" viewBox="0 0 1600 900" role="img">
  <defs><linearGradient id="bg" x1="0" y1="0" x2="1" y2="1"><stop offset="0%" stop-color="#0b1220"/><stop offset="60%" stop-color="#172554"/><stop offset="100%" stop-color="#0e1a33"/></linearGradient><pattern id="grid" width="56" height="56" patternUnits="userSpaceOnUse"><path d="M56 0H0V56" fill="none" stroke="#dbeafe" stroke-opacity="0.08" stroke-width="1"/></pattern></defs>
  <rect width="1600" height="900" fill="url(#bg)"/><rect width="1600" height="900" fill="url(#grid)"/>
  <circle cx="1280" cy="160" r="260" fill="#38bdf8" fill-opacity="0.14"/><circle cx="260" cy="760" r="220" fill="#22d3ee" fill-opacity="0.12"/>
  <g stroke="#7dd3fc" stroke-width="7" stroke-linecap="round" fill="none"><path d="M800 220V310"/><path d="M800 310L620 430"/><path d="M800 310L980 430"/><path d="M620 430L520 560"/><path d="M620 430L720 560"/><path d="M980 430L880 560"/><path d="M980 430L1080 560"/><path d="M1080 560L1190 690" stroke="#fde047"/></g>
  <g fill="#22d3ee" fill-opacity="0.75"><circle cx="800" cy="196" r="32"/><circle cx="620" cy="430" r="28"/><circle cx="980" cy="430" r="28"/><circle cx="520" cy="560" r="24"/><circle cx="720" cy="560" r="24"/><circle cx="880" cy="560" r="24"/><circle cx="1080" cy="560" r="24"/></g>
  <circle cx="1190" cy="690" r="22" fill="#fde047"/>
</svg>
