<svg xmlns="http://www.w3.org/2000/svg" viewBox="0 0 1600 900" role="img">
  <defs><linearGradient id="bg" x1="0" y1="0" x2="1" y2="1"><stop offset="0%" stop-color="#0b1220"/><stop offset="60%" stop-color="#172554"/><stop offset="100%" stop-color="#0e1a33"/></linearGradient><pattern id="grid" width="56" height="56" patternUnits="userSpaceOnUse"><path d="M56 0H0V56" fill="none" stroke="#dbeafe" stroke-opacity="0.08" stroke-width="1"/></pattern></defs>
  <rect width="1600" height="900" fill="url(#bg)"/><rect width="1600" height="900" fill="url(#grid)"/>
  <circle cx="1280" cy="160" r="260" fill="#38bdf8" fill-opacity="0.14"/><circle cx="260" cy="760" r="220" fill="#22d3ee" fill-opacity="0.12"/>
  <g stroke="#a5f3fc" stroke-width="7" fill="none" stroke-linecap="round"><path d="M430 280L570 390"/><path d="M570 390L410 530"/><path d="M860 260L1020 370"/><path d="M1020 370L890 560"/><path d="M1020 370L1160 560"/></g>
  <g fill="#22d3ee" fill-opacity="0.78"><circle cx="430" cy="280" r="26"/><circle cx="570" cy="390" r="26"/><circle cx="410" cy="530" r="26"/><circle cx="860" cy="260" r="26"/><circle cx="1020" cy="370" r="26"/><circle cx="890" cy="560" r="26"/><circle cx="1160" cy="560" r="26"/></g>
  <path d="M570 390L860 260" stroke="#fde047" stroke-width="8" stroke-linecap="round"/>
</svg>
